 <svg version="1.0" xmlns="http://www.w3.org/2000/svg" width="837.000000pt" height="633.000000pt" viewBox="0 0 837.000000 633.000000" preserveAspectRatio="xMidYMid meet">  <g transform="translate(0.000000,633.000000) scale(0.100000,-0.100000)" fill="#13a658" stroke="none"> <path d="M1070 6086 c-46 -30 -140 -131 -140 -149 0 -24 32 -44 106 -66 92 -27 97 -27 134 12 28 29 31 37 26 79 -7 63 -45 142 -71 145 -11 1 -36 -8 -55 -21z"></path> <path d="M384 5955 c-10 -15 -21 -65 -27 -117 -16 -148 21 -267 96 -307 23 -12 35 -32 86 -140 19 -40 49 -55 159 -76 l83 -16 52 28 c88 47 70 87 -58 130 -72 23 -89 37 -120 96 -33 63 -62 96 -92 108 -37 14 -59 62 -78 169 -24 137 -62 184 -101 125z"></path> <path d="M5048 5068 c-13 -24 -36 -72 -52 -108 -16 -36 -51 -107 -78 -158 -78 -149 -63 -194 80 -238 75 -22 104 -18 139 19 62 65 64 91 23 333 -33 195 -65 237 -112 152z"></path> <path d="M1758 4927 c-97 -25 -118 -40 -158 -111 -32 -55 -220 -250 -263 -272 -23 -13 -60 -14 -210 -8 l-183 7 -28 -25 c-38 -32 -31 -48 39 -92 59 -38 59 -39 119 -191 40 -100 42 -121 20 -150 -8 -11 -30 -68 -48 -126 -37 -114 -65 -178 -91 -199 -25 -21 -138 -6 -225 28 -41 17 -110 35 -153 41 -155 22 -201 12 -231 -47 -16 -31 -39 -167 -62 -362 -9 -74 -23 -184 -31 -245 -8 -60 -17 -186 -20 -279 -5 -167 -3 -184 37 -431 6 -33 24 -163 41 -290 34 -260 55 -343 109 -432 28 -47 47 -99 74 -209 38 -152 58 -202 99 -244 47 -50 76 -106 96 -187 24 -97 45 -140 108 -225 36 -47 57 -89 83 -168 18 -58 41 -116 49 -130 29 -45 204 -211 220 -208 29 5 49 71 65 211 9 76 22 147 29 158 6 11 35 34 64 50 54 31 93 71 119 120 8 16 32 38 53 48 43 23 88 70 122 131 13 23 45 57 71 75 36 27 54 50 82 109 20 41 56 98 81 126 55 62 64 79 109 209 21 63 52 128 76 163 56 79 76 143 111 353 16 99 38 232 49 295 39 232 37 343 -13 610 -14 74 -35 192 -46 262 -24 149 -38 188 -102 286 -28 42 -61 111 -79 166 -25 75 -41 106 -80 150 -50 58 -130 203 -130 238 0 11 9 62 21 112 21 90 21 91 89 156 37 36 84 90 104 121 20 31 54 69 75 83 21 15 59 58 84 96 26 37 64 83 86 101 42 33 51 58 28 77 -32 27 -166 60 -267 65 -89 5 -118 3 -192 -16z m-232 -1217 c15 -22 42 -93 61 -158 18 -64 56 -162 83 -217 81 -164 104 -336 104 -760 0 -451 -27 -660 -105 -805 -23 -41 -57 -129 -76 -195 -19 -66 -39 -133 -43 -148 -5 -15 -31 -52 -57 -81 -32 -35 -58 -77 -77 -125 -53 -135 -69 -155 -177 -227 -55 -36 -107 -64 -116 -62 -9 2 -30 25 -46 52 -26 42 -32 64 -39 150 -5 56 -20 202 -34 326 -57 518 -57 688 1 1110 8 58 19 152 25 210 24 225 49 338 100 450 29 62 61 156 79 230 33 134 74 235 100 246 30 12 146 42 168 43 16 1 31 -11 49 -39z m-741 -343 c-1 -78 -9 -103 -25 -77 -11 17 -13 143 -3 154 19 19 28 -7 28 -77z"></path> <path d="M4415 4350 c-86 -9 -123 -22 -200 -72 -60 -39 -81 -46 -255 -93 -129 -35 -141 -41 -170 -80 -25 -35 -50 -50 -172 -104 -45 -20 -91 -52 -137 -95 -44 -42 -93 -76 -135 -95 -47 -21 -71 -39 -84 -61 -31 -57 -53 -79 -110 -113 -46 -27 -63 -44 -88 -92 -29 -55 -49 -76 -107 -117 -14 -10 -50 -66 -82 -125 -38 -74 -73 -124 -109 -159 -45 -44 -55 -61 -75 -129 -28 -96 -63 -168 -106 -216 -40 -44 -57 -96 -85 -259 -29 -172 -47 -245 -77 -315 -28 -68 -41 -121 -53 -215 -4 -36 -16 -108 -26 -160 -24 -124 -27 -545 -5 -598 28 -66 -81 -62 1573 -61 826 1 1519 1 1538 1 19 -1 517 -1 1105 -2 985 -2 1074 0 1113 15 60 24 82 55 72 100 -12 52 -37 85 -78 102 -36 15 -38 15 -112 -23 -83 -43 -32 -37 -502 -60 -160 -7 -207 -1 -292 42 l-50 25 -59 -26 c-67 -31 -184 -54 -271 -55 -69 0 -119 24 -156 76 -51 71 -47 71 -101 10 -61 -67 -107 -85 -240 -88 -90 -3 -98 -1 -137 24 -22 15 -53 48 -67 73 -33 55 -59 59 -79 13 -18 -44 -48 -73 -97 -99 -36 -18 -52 -20 -132 -14 -114 9 -181 36 -227 94 -18 22 -40 41 -49 41 -9 0 -28 -21 -43 -45 -19 -31 -42 -52 -79 -71 -53 -26 -54 -26 -160 -16 -107 11 -171 30 -221 64 -34 23 -40 23 -84 -7 -87 -59 -244 -72 -406 -34 -81 19 -98 20 -166 9 -43 -7 -156 -14 -252 -17 -141 -4 -193 -2 -265 12 -116 22 -125 22 -220 -3 -117 -31 -271 -31 -340 2 -27 13 -59 33 -69 45 -25 28 -37 27 -113 -11 -74 -36 -114 -39 -144 -12 -48 43 -53 97 -18 201 17 51 33 74 95 136 53 54 74 82 74 101 0 13 -4 27 -9 31 -5 3 -20 35 -32 72 -22 66 -22 71 -10 260 12 183 35 324 62 376 7 12 27 39 45 59 20 23 39 59 49 95 9 32 23 85 32 118 21 80 53 133 100 172 22 17 46 46 52 65 34 90 59 133 97 167 23 20 60 63 82 97 42 63 120 146 280 298 66 62 112 96 157 117 39 17 83 49 117 82 44 45 69 60 150 91 53 20 116 52 140 70 113 85 156 98 292 89 91 -6 102 -9 133 -36 18 -16 51 -64 74 -107 22 -43 55 -94 74 -113 42 -43 142 -99 215 -121 61 -18 131 -55 137 -73 2 -6 -15 -28 -37 -50 -72 -66 -81 -95 -79 -241 2 -117 0 -134 -26 -210 -39 -116 -45 -121 -130 -123 -96 -1 -164 -21 -200 -59 l-30 -31 -6 -292 c-3 -161 -6 -293 -7 -294 -6 -9 -51 -1 -60 10 -7 8 -12 113 -14 292 -4 310 -5 317 -73 364 -49 33 -74 27 -140 -33 l-58 -54 7 -54 c4 -29 11 -174 16 -323 10 -313 17 -357 63 -403 28 -28 47 -35 130 -52 l97 -20 77 31 c177 68 178 69 228 185 l35 79 0 197 c0 198 5 223 35 198 12 -10 15 -48 15 -197 0 -204 20 -360 51 -404 10 -14 36 -38 58 -54 36 -24 53 -28 135 -33 l94 -5 84 45 c46 25 106 50 133 57 28 7 68 24 89 38 l40 26 35 -41 c20 -22 60 -56 88 -75 46 -31 63 -36 138 -42 102 -9 129 0 183 59 38 42 39 43 51 162 6 65 11 166 11 224 0 162 7 210 40 283 46 102 39 130 -43 157 -21 6 -58 27 -83 46 -24 19 -53 34 -63 34 -11 0 -48 -22 -83 -48 -88 -68 -93 -70 -146 -61 -26 4 -68 8 -93 8 -57 1 -106 32 -136 86 -36 67 -45 173 -37 471 l7 271 32 12 c17 6 47 11 67 11 41 0 54 13 94 93 31 62 129 169 178 194 86 45 160 46 294 8 63 -19 94 -37 139 -81 17 -18 56 -40 85 -49 137 -45 195 -75 236 -124 29 -35 61 -58 113 -82 60 -28 77 -42 104 -85 23 -36 49 -60 89 -82 55 -31 74 -52 105 -115 9 -18 40 -47 69 -66 44 -28 60 -47 87 -102 19 -37 48 -77 65 -90 63 -48 81 -74 122 -182 32 -81 55 -123 89 -163 53 -60 68 -98 103 -266 17 -83 35 -136 59 -180 40 -72 54 -116 73 -243 21 -139 19 -166 -21 -243 -19 -37 -40 -74 -47 -84 -10 -14 -6 -23 25 -57 48 -53 73 -104 92 -189 22 -98 31 -106 90 -98 61 10 91 39 100 99 9 59 -9 258 -34 371 -11 49 -25 150 -31 225 -23 277 -48 405 -93 465 -47 62 -75 122 -91 193 -27 122 -54 181 -111 243 -33 36 -60 78 -74 115 -31 83 -50 112 -92 140 -21 13 -51 49 -70 82 -27 47 -175 205 -308 328 -6 6 -31 31 -55 56 -25 25 -69 58 -99 72 -38 18 -64 40 -90 75 -27 38 -46 54 -84 67 -97 34 -129 51 -190 97 -87 67 -124 84 -231 107 -106 23 -158 44 -230 94 -100 69 -266 84 -394 35 -32 -12 -34 -16 -48 -119 -13 -92 -38 -165 -78 -223 -22 -32 -27 -53 -30 -112 -3 -47 -9 -78 -18 -85 -8 -6 -14 -17 -14 -24 0 -11 -6 -11 -29 1 -15 8 -57 17 -92 20 -68 6 -264 47 -314 66 -16 6 -56 37 -87 67 -31 31 -74 72 -95 91 -46 43 -61 86 -70 209 -10 144 -16 149 -188 131z m710 -1309 c3 -11 1 -150 -5 -308 -15 -364 -13 -338 -29 -338 -10 0 -14 22 -17 90 -7 170 -11 550 -7 563 7 20 51 14 58 -7z"></path> <path d="M7023 788 c-51 -56 -56 -74 -49 -161 11 -131 25 -176 74 -227 24 -25 53 -58 64 -75 31 -45 121 -135 134 -135 13 0 129 127 157 173 10 15 22 27 28 27 19 0 113 -111 139 -164 57 -116 82 -34 84 276 l1 217 -27 28 c-30 30 -23 31 -133 -23 -50 -24 -64 -37 -87 -79 -15 -28 -50 -74 -77 -103 -53 -56 -86 -66 -113 -34 -18 20 -48 106 -48 136 0 70 -61 166 -104 166 -13 0 -32 -10 -43 -22z"></path> <path d="M3582 770 c-25 -18 -52 -51 -68 -82 -14 -28 -33 -58 -40 -66 -29 -29 -46 -77 -60 -171 -16 -106 -14 -125 17 -164 27 -35 43 -34 130 8 41 19 84 35 97 35 53 0 121 -59 142 -122 8 -26 17 -38 30 -38 23 0 27 14 36 115 6 78 5 82 -21 113 -18 22 -35 32 -55 32 -52 0 -128 22 -133 39 -3 9 -8 23 -12 32 -4 11 4 27 24 48 28 28 61 111 61 151 0 9 -14 36 -30 58 -37 51 -61 53 -118 12z"></path> <path d="M4714 762 c-30 -20 -34 -55 -34 -320 0 -333 -6 -318 126 -314 87 3 154 21 154 41 0 6 -30 26 -67 43 -58 28 -71 40 -90 78 -21 41 -23 57 -23 233 0 161 -3 193 -17 218 -18 29 -29 35 -49 21z"></path> <path d="M5796 734 c-14 -13 -16 -47 -16 -213 0 -195 9 -266 34 -258 6 2 21 33 33 69 30 92 56 124 117 144 110 35 121 62 50 121 -26 21 -65 56 -88 78 -48 47 -86 75 -103 75 -6 0 -19 -7 -27 -16z"></path> <path d="M2546 704 c-8 -20 -8 -348 0 -368 8 -21 30 -21 38 0 3 9 6 91 6 184 0 174 -3 200 -25 200 -7 0 -16 -7 -19 -16z"></path> </g> </svg> 